<?xml version="1.0" ?><!DOCTYPE svg  PUBLIC '-//W3C//DTD SVG 1.1 Tiny//EN'  'http://www.w3.org/Graphics/SVG/1.1/DTD/svg11-tiny.dtd'><svg baseProfile="tiny" height="512px" id="Linked_in" version="1.1" viewBox="0 0 512 512" width="512px" xml:space="preserve" xmlns="http://www.w3.org/2000/svg" xmlns:xlink="http://www.w3.org/1999/xlink"><path d="M285.945,256.492v-0.508c-0.111,0.169-0.228,0.343-0.33,0.508H285.945z M414.714,105.992H132.145  c-13.528,0-24.499,10.704-24.499,23.906v285.867c0,13.201,10.971,23.904,24.499,23.904h282.569  c13.528,0,24.504-10.703,24.504-23.904V129.898C439.218,116.696,428.242,105.992,414.714,105.992z M208.15,385.313h-50.074v-150.67  h50.074V385.313z M183.114,214.078h-0.32c-16.811,0-27.679-11.576-27.679-26.043c0-14.773,11.199-26.025,28.329-26.025  s27.679,11.252,28.004,26.025C211.448,202.502,200.574,214.078,183.114,214.078z M388.734,385.313h-50.072v-80.609  c0-20.247-7.246-34.064-25.373-34.064c-13.834,0-22.074,9.315-25.693,18.31c-1.324,3.224-1.65,7.716-1.65,12.219v84.146h-50.08  c0,0,0.66-136.532,0-150.67h50.08v21.341c6.646-10.259,18.549-24.883,45.135-24.883c32.951,0,57.654,21.539,57.654,67.818V385.313z" style="fill:#ffffff"/></svg>
